<svg xmlns="http://www.w3.org/2000/svg" viewBox="0 0 120 100" fill="none" aria-label="Tendercraft symbol">
  <defs>
    <linearGradient id="tc-blue" x1="0%" y1="0%" x2="100%" y2="100%">
      <stop offset="0%" stop-color="#0055FF" />
      <stop offset="100%" stop-color="#0042D9" />
    </linearGradient>
    <linearGradient id="tc-dark" x1="0%" y1="0%" x2="100%" y2="100%">
      <stop offset="0%" stop-color="#141B2D" />
      <stop offset="100%" stop-color="#0B101D" />
    </linearGradient>
  </defs>

  <!-- Top Ribbon: Horizontal blue bar with angled left terminal -->
  <path d="M 16 34 L 36 14 L 84 14 C 94 14 102 20 105 30 L 86 30 C 84 26 80 24 76 24 L 38 24 L 28 34 Z" fill="url(#tc-blue)" />

  <!-- Top-Right 3D Turnaround Fold: Dark graphite ribbon bending inward -->
  <path d="M 84 14 C 97 14 106 23 106 36 L 106 48 C 106 50 103 51 101 49 L 91 38 C 90 31 86 24 76 24 L 84 14 Z" fill="url(#tc-dark)" />

  <!-- Central Stem & Bottom-Left Arch: Dark graphite foundation -->
  <path d="M 36 34 L 54 34 L 54 62 C 54 68 58 72 65 72 L 68 72 L 68 86 L 62 86 C 47 86 36 76 36 62 Z" fill="#0B101D" />

  <!-- Bottom Ribbon: Sweeping electric cobalt horizontal bar -->
  <path d="M 54 62 C 54 68 58 72 65 72 L 104 72 C 105.5 72 106 73 106 74.5 L 106 83.5 C 106 85 105.5 86 104 86 L 62 86 C 56 86 52 82 50 78 C 53 70 54 64 54 62 Z" fill="url(#tc-blue)" />
</svg>